:FULLY-SPECIFIED
:FORCE-ALL-JOINTS-BE-3DOF
:DEGREES
951
root 1.22458 15.3127 32.7239 6.58957 -3.16733 364.876
lfemur 5.71442 0.912313 3.27292
ltibia 2.9427 0 0
lfoot -29.7973 -14.0149 0
ltoes -31.3468 0 0
rfemur -31.2066 -14.359 -7.9189
rtibia 48.5662 0 0
rfoot -19.7376 3.14393 0
rtoes -42.9567 0 0
lowerback -2.38814 -0.410415 0.312451
upperback -1.4442 -0.555417 -6.81197
thorax -0.22204 -0.313412 -7.2858
lowerneck -6.78119 0.436263 4.0971
upperneck 1.48905 0.124271 3.33579
head 1.61423 0.168027 0.356071
lclavicle -1.1001e-14 3.89424e-14 0
lhumerus -59.0583 -44.1905 112.96
lradius 55.4887 0 0
lwrist 25.3893 0 0
lhand 40.1435 24.5635 0
lfingers 7.12502 0 0
lthumb 62.5057 35.3486 0
rclavicle -1.1001e-14 3.89424e-14 0
rhumerus 3.56612 -33.059 -4.82339
rradius 29.5272 0 0
rwrist -13.6848 0 0
rhand -37.8174 -49.3329 0
rfingers 7.12502 0 0
rthumb -10.8624 -799.012 0
952
root 1.22137 15.308 32.7172 6.55394 -3.21161 364.854
lfemur 5.80222 0.937495 3.32862
ltibia 2.85615 0 0
lfoot -29.8063 -13.9472 0
ltoes -31.4212 0 0
rfemur -31.2582 -14.3925 -7.8702
rtibia 48.6329 0 0
rfoot -19.8219 3.19846 0
rtoes -42.9255 0 0
lowerback -2.36377 -0.41068 0.324192
upperback -1.42282 -0.555634 -6.78542
thorax -0.21346 -0.312941 -7.26393
lowerneck -6.77779 0.456859 4.14938
upperneck 1.47666 0.148108 3.33549
head 1.60996 0.179835 0.347969
lclavicle -1.07126e-14 3.72358e-14 0
lhumerus -59.0369 -44.2176 113.013
lradius 55.4756 0 0
lwrist 25.3829 0 0
lhand 40.0598 24.5611 0
lfingers 7.12502 0 0
lthumb 62.4355 35.4307 0
rclavicle -1.07126e-14 3.72358e-14 0
rhumerus 3.57141 -32.8228 -4.68664
rradius 29.4827 0 0
rwrist -13.6147 0 0
rhand -37.6305 -49.1945 0
rfingers 7.12502 0 0
rthumb -10.682 -798.881 0
953
root 1.21816 15.3033 32.7104 6.5183 -3.25588 364.832
lfemur 5.89002 0.962677 3.38431
ltibia 2.7696 0 0
lfoot -29.8154 -13.8795 0
ltoes -31.4956 0 0
rfemur -31.3098 -14.4259 -7.82149
rtibia 48.6997 0 0
rfoot -19.9063 3.25299 0
rtoes -42.8944 0 0
lowerback -2.3394 -0.410944 0.335933
upperback -1.40144 -0.555851 -6.75887
thorax -0.20488 -0.312471 -7.24207
lowerneck -6.77439 0.477456 4.20166
upperneck 1.46426 0.171944 3.33519
head 1.60568 0.191642 0.339867
lclavicle -1.04241e-14 3.55291e-14 0
lhumerus -59.0155 -44.2446 113.065
lradius 55.4625 0 0
lwrist 25.3764 0 0
lhand 39.976 24.5587 0
lfingers 7.12502 0 0
lthumb 62.3653 35.5127 0
rclavicle -1.04241e-14 3.55291e-14 0
rhumerus 3.57671 -32.5866 -4.54988
rradius 29.4382 0 0
rwrist -13.5447 0 0
rhand -37.4435 -49.0561 0
rfingers 7.12502 0 0
rthumb -10.5015 -798.75 0
954
root 1.21495 15.2986 32.7037 6.48267 -3.30016 364.81
lfemur 5.97782 0.98786 3.44001
ltibia 2.68305 0 0
lfoot -29.8244 -13.8119 0
ltoes -31.57 0 0
rfemur -31.3613 -14.4593 -7.77279
rtibia 48.7664 0 0
rfoot -19.9906 3.30752 0
rtoes -42.8632 0 0
lowerback -2.31503 -0.411208 0.347674
upperback -1.38006 -0.556069 -6.73231
thorax -0.1963 -0.312001 -7.2202
lowerneck -6.77099 0.498053 4.25394
upperneck 1.45187 0.19578 3.33489
head 1.6014 0.20345 0.331766
lclavicle -1.01356e-14 3.38225e-14 0
lhumerus -58.9941 -44.2717 113.118
lradius 55.4494 0 0
lwrist 25.37 0 0
lhand 39.8923 24.5563 0
lfingers 7.12502 0 0
lthumb 62.2951 35.5947 0
rclavicle -1.01356e-14 3.38225e-14 0
rhumerus 3.58201 -32.3504 -4.41312
rradius 29.3937 0 0
rwrist -13.4746 0 0
rhand -37.2565 -48.9177 0
rfingers 7.12502 0 0
rthumb -10.3211 -798.619 0
955
root 1.21174 15.2939 32.697 6.44704 -3.34443 364.788
lfemur 6.06562 1.01304 3.49571
ltibia 2.5965 0 0
lfoot -29.8335 -13.7442 0
ltoes -31.6444 0 0
rfemur -31.4129 -14.4928 -7.72409
rtibia 48.8332 0 0
rfoot -20.0749 3.36206 0
rtoes -42.832 0 0
lowerback -2.29066 -0.411472 0.359415
upperback -1.35868 -0.556286 -6.70576
thorax -0.18772 -0.31153 -7.19833
lowerneck -6.76759 0.51865 4.30623
upperneck 1.43947 0.219616 3.33459
head 1.59712 0.215258 0.323664
lclavicle -9.84712e-15 3.21159e-14 0
lhumerus -58.9726 -44.2988 113.171
lradius 55.4363 0 0
lwrist 25.3635 0 0
lhand 39.8086 24.5539 0
lfingers 7.12502 0 0
lthumb 62.2249 35.6767 0
rclavicle -9.84712e-15 3.21159e-14 0
rhumerus 3.5873 -32.1142 -4.27636
rradius 29.3492 0 0
rwrist -13.4046 0 0
rhand -37.0696 -48.7793 0
rfingers 7.12502 0 0
rthumb -10.1407 -798.488 0
956
root 1.20853 15.2892 32.6902 6.41141 -3.38871 364.766
lfemur 6.15342 1.03822 3.55141
ltibia 2.50995 0 0
lfoot -29.8425 -13.6765 0
ltoes -31.7188 0 0
rfemur -31.4645 -14.5262 -7.67539
rtibia 48.8999 0 0
rfoot -20.1593 3.41659 0
rtoes -42.8009 0 0
lowerback -2.26629 -0.411737 0.371156
upperback -1.3373 -0.556503 -6.67921
thorax -0.17914 -0.31106 -7.17646
lowerneck -6.76419 0.539246 4.35851
upperneck 1.42708 0.243453 3.33429
head 1.59284 0.227066 0.315562
lclavicle -9.55864e-15 3.04092e-14 0
lhumerus -58.9512 -44.3258 113.224
lradius 55.4232 0 0
lwrist 25.3571 0 0
lhand 39.7248 24.5516 0
lfingers 7.12502 0 0
lthumb 62.1547 35.7587 0
rclavicle -9.55864e-15 3.04092e-14 0
rhumerus 3.5926 -31.878 -4.1396
rradius 29.3047 0 0
rwrist -13.3345 0 0
rhand -36.8826 -48.6409 0
rfingers 7.12502 0 0
rthumb -9.96029 -798.357 0
957
root 1.20532 15.2845 32.6835 6.37578 -3.43298 364.743
lfemur 6.24122 1.06341 3.60711
ltibia 2.4234 0 0
lfoot -29.8516 -13.6089 0
ltoes -31.7932 0 0
rfemur -31.5161 -14.5596 -7.62669
rtibia 48.9666 0 0
rfoot -20.2436 3.47112 0
rtoes -42.7697 0 0
lowerback -2.24191 -0.412001 0.382898
upperback -1.31593 -0.556721 -6.65266
thorax -0.170561 -0.310589 -7.15459
lowerneck -6.76079 0.559843 4.41079
upperneck 1.41469 0.267289 3.334
head 1.58857 0.238874 0.30746
lclavicle -9.27016e-15 2.87026e-14 0
lhumerus -58.9298 -44.3529 113.277
lradius 55.4101 0 0
lwrist 25.3506 0 0
lhand 39.6411 24.5492 0
lfingers 7.12502 0 0
lthumb 62.0845 35.8408 0
rclavicle -9.27016e-15 2.87026e-14 0
rhumerus 3.59789 -31.6418 -4.00285
rradius 29.2602 0 0
rwrist -13.2644 0 0
rhand -36.6957 -48.5025 0
rfingers 7.12502 0 0
rthumb -9.77987 -798.226 0
958
root 1.20211 15.2798 32.6768 6.34015 -3.47726 364.721
lfemur 6.32902 1.08859 3.66281
ltibia 2.33685 0 0
lfoot -29.8606 -13.5412 0
ltoes -31.8676 0 0
rfemur -31.5676 -14.5931 -7.57799
rtibia 49.0334 0 0
rfoot -20.3279 3.52565 0
rtoes -42.7385 0 0
lowerback -2.21754 -0.412265 0.394639
upperback -1.29455 -0.556938 -6.6261
thorax -0.161981 -0.310119 -7.13272
lowerneck -6.75739 0.58044 4.46307
upperneck 1.40229 0.291125 3.3337
head 1.58429 0.250682 0.299359
lclavicle -8.98168e-15 2.6996e-14 0
lhumerus -58.9084 -44.38 113.33
lradius 55.397 0 0
lwrist 25.3442 0 0
lhand 39.5574 24.5468 0
lfingers 7.12502 0 0
lthumb 62.0143 35.9228 0
rclavicle -8.98168e-15 2.6996e-14 0
rhumerus 3.60319 -31.4056 -3.86609
rradius 29.2157 0 0
rwrist -13.1944 0 0
rhand -36.5087 -48.3641 0
rfingers 7.12502 0 0
rthumb -9.59945 -798.095 0
959
root 1.1989 15.2751 32.67 6.30451 -3.52153 364.699
lfemur 6.41682 1.11377 3.7185
ltibia 2.2503 0 0
lfoot -29.8697 -13.4735 0
ltoes -31.942 0 0
rfemur -31.6192 -14.6265 -7.52928
rtibia 49.1001 0 0
rfoot -20.4123 3.58018 0
rtoes -42.7074 0 0
lowerback -2.19317 -0.41253 0.40638
upperback -1.27317 -0.557155 -6.59955
thorax -0.153401 -0.309648 -7.11086
lowerneck -6.75399 0.601036 4.51535
upperneck 1.3899 0.314962 3.3334
head 1.58001 0.26249 0.291257
lclavicle -8.6932e-15 2.52893e-14 0
lhumerus -58.887 -44.407 113.382
lradius 55.3839 0 0
lwrist 25.3377 0 0
lhand 39.4737 24.5444 0
lfingers 7.12502 0 0
lthumb 61.9441 36.0048 0
rclavicle -8.6932e-15 2.52893e-14 0
rhumerus 3.60848 -31.1694 -3.72933
rradius 29.1712 0 0
rwrist -13.1243 0 0
rhand -36.3218 -48.2257 0
rfingers 7.12502 0 0
rthumb -9.41903 -797.964 0
960
root 1.19569 15.2704 32.6633 6.26888 -3.56581 364.677
lfemur 6.50462 1.13895 3.7742
ltibia 2.16375 0 0
lfoot -29.8787 -13.4059 0
ltoes -32.0164 0 0
rfemur -31.6708 -14.6599 -7.48058
rtibia 49.1669 0 0
rfoot -20.4966 3.63471 0
rtoes -42.6762 0 0
lowerback -2.1688 -0.412794 0.418121
upperback -1.25179 -0.557373 -6.573
thorax -0.144821 -0.309178 -7.08899
lowerneck -6.75059 0.621633 4.56763
upperneck 1.3775 0.338798 3.3331
head 1.57573 0.274298 0.283155
lclavicle -8.40472e-15 2.35827e-14 0
lhumerus -58.8656 -44.4341 113.435
lradius 55.3708 0 0
lwrist 25.3313 0 0
lhand 39.3899 24.5421 0
lfingers 7.12502 0 0
lthumb 61.8739 36.0868 0
rclavicle -8.40472e-15 2.35827e-14 0
rhumerus 3.61378 -30.9331 -3.59257
rradius 29.1267 0 0
rwrist -13.0543 0 0
rhand -36.1348 -48.0873 0
rfingers 7.12502 0 0
rthumb -9.23862 -797.832 0
